<svg width="117" height="31" viewBox="0 0 117 31" fill="none" xmlns="http://www.w3.org/2000/svg">
<path fill-rule="evenodd" clip-rule="evenodd" d="M0.501368 0.116209C0.370423 0.18143 0.204029 0.333112 0.13165 0.453146C0.00422831 0.664488 0 1.14683 0 15.4975C0 30.0767 0.00232539 30.3274 0.13764 30.5517C0.497915 31.1494 1.40396 31.1494 1.76423 30.5517C1.89941 30.3276 1.90187 30.0873 1.90209 16.8163L1.90237 3.30901L12.2095 13.7261C17.8785 19.4555 22.586 24.1786 22.6706 24.2219C22.9083 24.3433 23.3386 24.3147 23.588 24.1608C24.0573 23.8714 24.0319 24.282 24.0317 16.9801C24.0314 10.5453 24.0276 10.3592 23.8938 10.1373C23.7139 9.83875 23.4136 9.68828 22.998 9.68828H22.6617L20.1642 12.2114L17.6667 14.7345L17.6387 15.116C17.6048 15.5792 17.7615 15.8779 18.1319 16.0556C18.4438 16.2053 18.691 16.2065 18.9788 16.0595C19.1028 15.9962 19.8623 15.2835 20.6667 14.4758L22.1291 13.0072V16.9963V20.9854L11.8219 10.5645C5.96032 4.6383 1.42919 0.111434 1.31636 0.0690224C1.03642 -0.0363993 0.777495 -0.0213593 0.501368 0.116209ZM25.4629 0.133744C25.3391 0.210155 25.1805 0.360982 25.1105 0.468898C24.9894 0.655863 24.9817 1.30686 24.9481 14.158L24.9129 27.6508L14.6586 17.275C9.01871 11.5684 4.31865 6.85323 4.21399 6.79691C3.80812 6.57866 3.25551 6.74545 2.98094 7.16913C2.86106 7.3541 2.85274 7.74065 2.83477 13.9126C2.81616 20.3065 2.81898 20.4674 2.95535 20.7792C3.06826 21.0375 3.15748 21.1264 3.42205 21.2448C4.05387 21.5275 3.98177 21.5805 6.71224 18.8262C8.42735 17.0961 9.1844 16.2847 9.23874 16.1181C9.40309 15.6145 9.10469 15.0369 8.60149 14.8844C8.08744 14.7286 7.9276 14.8393 6.28952 16.4841L4.7919 17.9879V13.9986V10.0093L15.1419 20.4769C25.427 30.879 25.4939 30.9449 25.8091 30.9808C26.2586 31.0321 26.5938 30.8562 26.7774 30.4726C26.921 30.1725 26.9215 30.1319 26.9213 15.4928C26.9212 1.66026 26.9141 0.799705 26.798 0.56598C26.5403 0.0471398 25.9259 -0.151729 25.4629 0.133744ZM32.2072 13.573V20.7365H33.2991H34.3909L34.4091 16.2187L34.4272 11.7007L38.7967 16.3236C41.2 18.8662 43.2059 20.9474 43.2543 20.9485C43.3243 20.9499 43.3424 19.4708 43.3424 13.785V6.61964L42.2324 6.63932L41.1224 6.65892L41.0872 11.1513L41.052 15.6436L36.6824 11.0265C34.2792 8.48716 32.2892 6.40944 32.26 6.40944C32.2309 6.40944 32.2072 9.63304 32.2072 13.573ZM53.4566 6.48671C51.7226 6.67631 49.8585 7.67764 48.7691 9.00464C48.0804 9.84367 47.5553 10.8816 47.2515 12.0049C47.0709 12.6725 47.0327 14.303 47.1803 15.0412C48.0353 19.3165 52.293 21.9069 56.3424 20.6154C58.6801 19.8697 60.4143 18.074 61.1472 15.6401C61.3272 15.0426 61.3405 14.9106 61.3405 13.7155C61.3405 12.5211 61.3272 12.3888 61.1482 11.7981C60.7227 10.3936 60.118 9.39974 59.0923 8.41887C57.5776 6.97048 55.5112 6.26204 53.4566 6.48671ZM111.564 6.49305C110.975 6.57802 110.247 6.83533 109.747 7.13499C108.123 8.10852 107.443 10.2008 108.234 11.7885C108.733 12.7917 109.394 13.2661 111.81 14.358C113.162 14.9687 114.061 15.5387 114.416 16.0092C115.12 16.9411 114.603 18.0879 113.293 18.4992C112.809 18.6513 111.76 18.7061 111.277 18.6047C110.373 18.4147 109.427 17.7566 109.031 17.0414C108.992 16.9705 108.757 17.1058 108.121 17.5653C107.65 17.9059 107.264 18.2259 107.264 18.2763C107.264 18.4484 107.833 19.2298 108.209 19.5738C109.278 20.5536 110.704 21.015 112.395 20.9291C113.906 20.8524 114.992 20.4141 115.864 19.5284C117.04 18.3348 117.324 16.7289 116.617 15.2585C116.101 14.1844 114.983 13.3957 112.409 12.2915C111.21 11.777 110.797 11.5404 110.482 11.1884C109.767 10.388 110.322 9.1492 111.558 8.78532C112.01 8.65245 112.739 8.63649 113.149 8.7506C113.755 8.91889 114.403 9.4423 114.724 10.0214C114.776 10.1157 114.913 10.0451 115.569 9.58614C116 9.28477 116.371 9.00806 116.394 8.97121C116.464 8.85695 116.013 8.08992 115.665 7.73053C114.991 7.03392 114.135 6.61736 113.099 6.48122C112.492 6.4016 112.181 6.40395 111.564 6.49305ZM65.1196 13.7134V20.7402L66.2296 20.7205L67.3396 20.7009L67.3581 18.0078L67.3766 15.3148L68.1957 15.3349L69.0149 15.355L70.8553 18.0424L72.6958 20.7299L74.0525 20.7332C74.7987 20.735 75.4092 20.718 75.4092 20.6953C75.4092 20.6726 74.5212 19.4202 73.4358 17.9122C72.3505 16.4041 71.4625 15.1601 71.4625 15.1477C71.4625 15.1352 71.6707 15.0214 71.9251 14.8947C72.8031 14.4576 73.5206 13.6145 73.9147 12.5567C74.1648 11.8857 74.1806 10.6769 73.949 9.93776C73.5086 8.53163 72.4043 7.42852 70.9339 6.92579L70.3701 6.73305L67.7449 6.70981L65.1196 6.68657V13.7134ZM78.5806 13.7155V20.7365L80.8182 20.7363C82.049 20.7363 83.3413 20.7008 83.6901 20.6575C87.3068 20.2093 89.4738 17.8819 89.6891 14.2145C89.7758 12.7372 89.5355 11.4516 88.9431 10.2229C88.2243 8.732 87.0136 7.67686 85.4012 7.13613C84.2573 6.75251 83.6849 6.6952 80.9944 6.69484L78.5806 6.69456V13.7155ZM93.2415 10.9891C93.2425 13.3511 93.2735 15.5976 93.3104 15.9812C93.5941 18.931 95.7134 20.9504 98.5254 20.9504C101.005 20.9504 102.921 19.4328 103.614 16.9193C103.767 16.3646 103.77 16.2527 103.795 11.5237L103.819 6.69456H102.688H101.556L101.555 11.1673C101.553 16.0093 101.538 16.2358 101.168 17.0018C100.801 17.7598 100.127 18.3369 99.3428 18.565C98.729 18.7434 97.8417 18.685 97.3186 18.4318C96.5462 18.0579 95.9786 17.3924 95.6824 16.5131C95.5363 16.0794 95.5318 15.945 95.5104 11.3812L95.4883 6.69456H94.364H93.2397L93.2415 10.9891ZM55.4172 8.87898C57.0196 9.28227 58.3419 10.5278 58.8878 12.1481C59.1351 12.8823 59.1952 13.9615 59.032 14.7395C58.6604 16.5112 57.2471 18.0013 55.4644 18.5012C54.7368 18.7053 53.4771 18.6734 52.751 18.4324C51.9539 18.168 51.3536 17.7909 50.74 17.169C49.8114 16.2279 49.3319 15.0402 49.334 13.6863C49.3353 12.8339 49.4692 12.2457 49.8373 11.4754C50.2144 10.6862 51.1554 9.70475 51.9053 9.31848C53.0718 8.71753 54.21 8.57511 55.4172 8.87898ZM69.9176 8.97656C70.659 9.11876 71.285 9.57003 71.6176 10.2021C71.751 10.4555 71.7786 10.6182 71.7786 11.1495C71.7786 11.9184 71.6409 12.2458 71.0978 12.7676C70.5252 13.3177 70.2235 13.3948 68.6408 13.3948H67.3044V11.1495V8.90421H68.4224C69.0373 8.90421 69.7101 8.93678 69.9176 8.97656ZM83.3044 8.97934C84.5702 9.13858 85.3953 9.51778 86.1589 10.2912C87.0579 11.2017 87.4184 12.182 87.4184 13.7155C87.4184 14.4621 87.3875 14.753 87.2591 15.2124C86.7755 16.9431 85.48 18.0815 83.6549 18.3797C83.403 18.4208 82.6656 18.4548 82.0163 18.455L80.8359 18.4556V13.6799V8.90421H81.7715C82.2861 8.90421 82.9759 8.938 83.3044 8.97934ZM48.5947 26.7734C48.0613 27.9419 47.609 28.9542 47.5897 29.0227C47.5593 29.1308 47.6068 29.1475 47.9446 29.1475H48.3346L48.4557 28.8267L48.5769 28.506H49.5917H50.6065L50.7425 28.8267L50.8784 29.1475H51.2685C51.4831 29.1475 51.6586 29.1362 51.6586 29.1224C51.6586 29.0627 49.6734 24.7589 49.6217 24.7066C49.5902 24.6748 49.1281 25.6048 48.5947 26.7734ZM81.0252 25.0206C80.9315 25.2322 80.4859 26.2133 80.0349 27.2008C79.5839 28.1883 79.2149 29.0304 79.2149 29.0719C79.2149 29.1156 79.3711 29.1473 79.5849 29.1472L79.9549 29.147L80.0852 28.8264L80.2155 28.506H81.2164H82.2173L82.3714 28.8267L82.5255 29.1475H82.9149H83.3044L83.2058 28.9158C82.8986 28.1949 81.3075 24.7537 81.2565 24.6999C81.2216 24.6632 81.1229 24.8 81.0252 25.0206ZM103.188 24.9481C103.114 25.1211 102.669 26.1056 102.199 27.1357C101.729 28.1657 101.344 29.0398 101.344 29.078C101.344 29.1162 101.511 29.1473 101.714 29.1472L102.084 29.147L102.215 28.8264L102.345 28.506H103.357H104.368L104.509 28.8267L104.649 29.1475H105.041H105.434L105.335 28.9158C104.994 28.1162 103.439 24.7523 103.387 24.6986C103.348 24.6594 103.269 24.7588 103.188 24.9481ZM40.2415 26.9378V29.1475H41.1849C42.0782 29.1475 42.148 29.1371 42.5012 28.9505C43.37 28.4914 43.4575 27.3058 42.6603 26.7945C42.4003 26.6277 42.3711 26.5861 42.4609 26.5106C42.7878 26.2363 42.7112 25.4882 42.3179 25.113C42.0259 24.8346 41.6185 24.7282 40.8446 24.7282H40.2415V26.9378ZM56.3806 26.9305V29.1475H56.7329H57.0853V28.2921V27.4368L57.3144 27.4375C57.5272 27.4381 57.5849 27.4986 58.1298 28.2928L58.7162 29.1475H59.1341C59.364 29.1475 59.5513 29.1235 59.5504 29.094C59.5495 29.0646 59.2836 28.6723 58.9594 28.2222L58.3702 27.4038L58.5621 27.2858C59.2119 26.8861 59.3728 26.0164 58.9152 25.3775C58.5702 24.8957 58.2492 24.7736 57.2439 24.7413L56.3806 24.7135V26.9305ZM64.2739 26.9378V29.1475H65.2173C66.1107 29.1475 66.1804 29.1371 66.5336 28.9505C67.4024 28.4914 67.49 27.3058 66.6927 26.7945C66.4327 26.6277 66.4035 26.5861 66.4934 26.5106C66.8202 26.2363 66.7436 25.4882 66.3503 25.113C66.0584 24.8346 65.6509 24.7282 64.877 24.7282H64.2739V26.9378ZM72.0263 26.9378V29.1507L73.3125 29.1313L74.5987 29.1118V28.7554V28.399L73.6649 28.3792L72.7311 28.3593V27.8267V27.2942H73.5415H74.352V26.9022V26.5101H73.5415H72.7311V26.0133V25.5164L73.6649 25.4965L74.5987 25.4766V25.1202V24.7638L73.3125 24.7444L72.0263 24.725V26.9378ZM87.9891 24.8095C87.9686 24.8637 87.9602 25.8539 87.9705 27.01L87.9892 29.1118L88.3592 29.1334L88.7292 29.155V28.2958V27.4368L88.9583 27.4402C89.17 27.4433 89.2303 27.5065 89.7569 28.2777L90.3265 29.1118L90.7612 29.1331C91.0003 29.1447 91.1959 29.1347 91.1959 29.1108C91.1959 29.0869 90.9296 28.695 90.6042 28.2399L90.0126 27.4125L90.2277 27.2643C91.0581 26.6922 90.9885 25.4984 90.0939 24.9682C89.7866 24.7861 89.6856 24.7669 88.8925 24.7402C88.2008 24.7169 88.019 24.7309 87.9891 24.8095ZM95.8807 24.8141C95.8611 24.8658 95.8536 25.8539 95.8639 27.01L95.8825 29.1118L96.2536 29.1334L96.6246 29.155L96.606 26.9594L96.5873 24.7638L96.2518 24.7421C96.0231 24.7272 95.905 24.7502 95.8807 24.8141ZM41.8774 25.7313C42.1587 26.1136 41.8299 26.5101 41.2317 26.5101H40.9463V26.0076V25.5051L41.3443 25.5265C41.6767 25.5443 41.7646 25.5782 41.8774 25.7313ZM58.2184 25.7206C58.4882 25.9935 58.4916 26.2893 58.2283 26.5873C58.0554 26.7829 57.9763 26.8137 57.5588 26.8477L57.0853 26.8861V26.1992V25.5122H57.5489C57.9672 25.5122 58.0325 25.5326 58.2184 25.7206ZM65.9098 25.7313C66.1911 26.1136 65.8623 26.5101 65.2641 26.5101H64.9787V26.0076V25.5051L65.3767 25.5265C65.7091 25.5443 65.797 25.5782 65.9098 25.7313ZM89.8095 25.6579C89.9142 25.7412 90.0121 25.9091 90.0383 26.0503C90.1257 26.5213 89.7071 26.8665 89.0486 26.8665H88.7292V26.1894V25.5122H89.1778C89.5228 25.5122 89.6686 25.5459 89.8095 25.6579ZM49.9586 27.0626C50.1184 27.4254 50.2491 27.7381 50.2491 27.7576C50.2491 27.7772 49.95 27.7932 49.5845 27.7932H48.9199L49.2455 27.044C49.4246 26.632 49.593 26.3193 49.6196 26.3491C49.6463 26.3789 49.7989 26.7 49.9586 27.0626ZM81.5853 27.0541C81.7547 27.4344 81.8814 27.7575 81.8669 27.7721C81.8523 27.7868 81.5527 27.7895 81.2011 27.7781L80.5616 27.7575L80.8868 27.027C81.0656 26.6252 81.2266 26.3114 81.2447 26.3296C81.2627 26.3478 81.4159 26.6739 81.5853 27.0541ZM103.718 27.0534C103.888 27.4319 104.014 27.7544 103.998 27.7701C103.983 27.7859 103.685 27.7895 103.336 27.7781L102.702 27.7575L103.02 27.0257C103.196 26.6232 103.355 26.31 103.374 26.3297C103.394 26.3493 103.548 26.675 103.718 27.0534ZM42.2799 27.3362C42.5617 27.5761 42.5675 27.8534 42.297 28.1595C42.1101 28.3711 42.0603 28.3878 41.5218 28.4193L40.9463 28.453V27.8023V27.1517H41.5046C42.0025 27.1517 42.0866 27.1716 42.2799 27.3362ZM66.3123 27.3362C66.5941 27.5761 66.5999 27.8534 66.3294 28.1595C66.1425 28.3711 66.0928 28.3878 65.5542 28.4193L64.9787 28.453V27.8023V27.1517H65.5371C66.035 27.1517 66.119 27.1716 66.3123 27.3362Z" fill="black"/>
</svg>
